<?xml version="1.0" encoding="utf-8"?>
<!-- Generator: Adobe Illustrator 25.3.1, SVG Export Plug-In . SVG Version: 6.00 Build 0)  -->
<svg version="1.1" xmlns="http://www.w3.org/2000/svg" xmlns:xlink="http://www.w3.org/1999/xlink" x="0px" y="0px"
	 viewBox="0 0 823.4 333.4" style="enable-background:new 0 0 823.4 333.4;" xml:space="preserve">
<style type="text/css">
	.st0{fill:none;stroke:#BDAB48;stroke-width:3;stroke-miterlimit:10;}
	.st1{fill:#3B495A;}
	.st2{fill:#BDAB48;}
	.st3{enable-background:new    ;}
	.st4{clip-path:url(#SVGID_2_);}
	.st5{clip-path:url(#SVGID_4_);}
	.st6{clip-path:url(#SVGID_6_);}
	.st7{fill:#365776;}
	.st8{clip-path:url(#SVGID_8_);}
	.st9{clip-path:url(#SVGID_10_);}
	.st10{clip-path:url(#SVGID_12_);}
	.st11{display:none;}
	.st12{display:inline;}
	.st13{clip-path:url(#SVGID_14_);}
	.st14{clip-path:url(#SVGID_16_);}
	.st15{clip-path:url(#SVGID_18_);}
	.st16{fill:none;stroke:#9C9C9C;stroke-width:3;stroke-miterlimit:10;}
	.st17{clip-path:url(#SVGID_20_);}
	.st18{clip-path:url(#SVGID_22_);}
	.st19{fill:#9C9C9C;}
	.st20{clip-path:url(#SVGID_24_);}
	.st21{fill:#2C2C2C;}
	.st22{display:inline;fill:#3C3C3B;}
	.st23{fill:none;stroke:#FFFFFF;stroke-width:3;stroke-miterlimit:10;}
	.st24{clip-path:url(#SVGID_26_);}
	.st25{fill:#FFFFFF;}
	.st26{clip-path:url(#SVGID_28_);}
	.st27{clip-path:url(#SVGID_30_);}
	.st28{clip-path:url(#SVGID_32_);}
	.st29{clip-path:url(#SVGID_34_);}
	.st30{clip-path:url(#SVGID_36_);}
</style>
<g id="Logo_curvas">
	<line class="st0" x1="321.9" y1="69.6" x2="321.9" y2="251.5"/>
	<g>
		<g>
			<path class="st1" d="M385.3,137.5l-0.8,13h-36.7v-2.2c0.6,0,1.5-0.1,2.5-0.3c1-0.1,1.7-0.3,2-0.4c0.7-0.3,1.1-0.7,1.4-1.2
				c0.3-0.5,0.4-1.1,0.4-1.9v-31.8c0-0.7-0.1-1.3-0.3-1.8c-0.2-0.5-0.7-1-1.4-1.3c-0.6-0.3-1.3-0.5-2.3-0.7
				c-0.9-0.2-1.7-0.3-2.3-0.4v-2.2h34.2V117h-2.3c-0.4-1.6-1.3-3.3-2.7-5c-1.4-1.8-2.7-2.7-3.9-2.9c-0.6-0.1-1.4-0.1-2.3-0.2
				c-0.9,0-1.9-0.1-3.1-0.1h-6.9v17.6h5c1.6,0,2.8-0.2,3.5-0.5c0.7-0.3,1.4-0.8,1.9-1.5c0.5-0.6,0.8-1.4,1.2-2.4
				c0.3-1,0.5-2,0.6-2.8h2.3v17.3h-2.3c-0.1-1-0.3-2-0.7-3.2c-0.4-1.1-0.7-1.9-1.1-2.4c-0.6-0.8-1.4-1.3-2.2-1.6
				c-0.8-0.2-1.9-0.4-3.3-0.4h-5v13.2c0,1.3,0.1,2.4,0.3,3.1c0.2,0.8,0.5,1.3,1.1,1.7c0.5,0.4,1.3,0.6,2.2,0.8
				c0.9,0.1,2.3,0.2,4,0.2c0.7,0,1.6,0,2.7,0s2.1,0,2.8-0.1c0.8-0.1,1.6-0.2,2.4-0.5c0.8-0.2,1.4-0.5,1.8-0.9c1-1,2-2.5,3-4.5
				c1-2,1.7-3.5,2-4.5H385.3z"/>
			<path class="st1" d="M409.9,135.5c0.9,0.7,1.5,1.6,2,2.6c0.5,1,0.7,2.2,0.7,3.6c0,2.8-1.1,5.2-3.2,7c-2.1,1.8-4.9,2.7-8.3,2.7
				c-1.8,0-3.4-0.3-4.9-1c-1.5-0.6-2.6-1.2-3.2-1.8l-0.6,2H390l-0.3-10.7h2.1c0.2,0.8,0.5,1.8,1.1,2.8c0.5,1.1,1.2,2.1,2,2.9
				c0.8,0.9,1.8,1.7,2.9,2.3c1.1,0.6,2.4,0.9,3.8,0.9c2,0,3.5-0.5,4.6-1.4c1.1-0.9,1.6-2.2,1.6-3.9c0-0.9-0.2-1.6-0.5-2.3
				c-0.3-0.6-0.8-1.2-1.5-1.7c-0.7-0.5-1.5-0.9-2.5-1.3c-1-0.4-2.1-0.8-3.3-1.1c-1-0.3-2.1-0.7-3.3-1.2c-1.2-0.5-2.2-1.1-3.1-1.8
				c-0.9-0.7-1.7-1.6-2.2-2.7s-0.9-2.3-0.9-3.7c0-2.5,0.9-4.6,2.8-6.4s4.4-2.6,7.5-2.6c1.2,0,2.4,0.2,3.7,0.5
				c1.3,0.3,2.3,0.7,3.1,1.1l0.7-1.6h2.2l0.5,9.9h-2.1c-0.4-2.2-1.4-4-2.8-5.4c-1.4-1.4-3.2-2.1-5.3-2.1c-1.7,0-3,0.4-4,1.3
				s-1.5,1.9-1.5,3.1c0,0.9,0.2,1.7,0.5,2.3s0.8,1.2,1.4,1.6c0.6,0.4,1.4,0.8,2.4,1.2c0.9,0.4,2.1,0.8,3.5,1.2
				c1.4,0.4,2.7,0.9,3.9,1.5C408.1,134.2,409.1,134.8,409.9,135.5z"/>
			<path class="st1" d="M436.8,149.2c-1.3,0.6-2.6,1-3.8,1.4c-1.2,0.4-2.7,0.6-4.4,0.6c-2.6,0-4.4-0.6-5.4-1.9
				c-1-1.3-1.6-3.1-1.6-5.5V123H416v-3h5.7v-9.6h5.7v9.6h8.8v3h-8.7v17.2c0,1.3,0,2.4,0.1,3.2c0.1,0.9,0.3,1.6,0.7,2.3
				c0.3,0.6,0.8,1.1,1.5,1.4c0.7,0.3,1.6,0.5,2.7,0.5c0.5,0,1.3,0,2.3-0.1c1-0.1,1.7-0.2,2.1-0.4V149.2z"/>
			<path class="st1" d="M467.7,143.3c-1.3,2.4-3,4.4-5.2,5.9s-4.6,2.2-7.4,2.2c-2.5,0-4.6-0.4-6.5-1.3s-3.4-2.1-4.6-3.5
				c-1.2-1.5-2.1-3.2-2.7-5.2c-0.6-2-0.9-4.1-0.9-6.3c0-2,0.3-3.9,0.9-5.9c0.6-1.9,1.6-3.6,2.8-5.2c1.2-1.5,2.7-2.7,4.4-3.6
				s3.7-1.4,5.9-1.4c2.2,0,4.2,0.4,5.8,1.1c1.6,0.7,2.9,1.7,3.9,2.9c1,1.2,1.7,2.5,2.1,4.1c0.5,1.6,0.7,3.3,0.7,5.1v2.1h-20.3
				c0,2,0.2,3.8,0.6,5.5c0.4,1.6,1,3.1,1.8,4.3c0.8,1.2,1.9,2.2,3.2,2.9c1.3,0.7,2.9,1,4.7,1c1.8,0,3.4-0.4,4.8-1.3s2.6-2.4,3.9-4.7
				L467.7,143.3z M460.8,131.6c0-1.2-0.1-2.4-0.3-3.7c-0.2-1.3-0.5-2.4-0.9-3.3c-0.5-1-1.1-1.7-2-2.3s-1.9-0.9-3.2-0.9
				c-2.2,0-4,0.9-5.4,2.7c-1.4,1.8-2.2,4.3-2.4,7.6H460.8z"/>
			<path class="st1" d="M486.3,150.5h-15v-2.1c0.5,0,1-0.1,1.5-0.1s1-0.1,1.3-0.2c0.6-0.2,1-0.5,1.3-1c0.3-0.5,0.4-1.1,0.4-1.8
				v-35.6c0-0.7-0.2-1.4-0.5-2.1c-0.3-0.7-0.7-1.2-1.3-1.5c-0.4-0.2-1.1-0.5-2.1-0.7s-1.8-0.3-2.4-0.4v-2l11.5-0.7l0.4,0.5v42.1
				c0,0.7,0.1,1.3,0.4,1.8c0.3,0.5,0.7,0.8,1.3,1.1c0.5,0.2,0.9,0.4,1.4,0.5c0.4,0.1,1,0.2,1.5,0.2V150.5z"/>
			<path class="st1" d="M519.8,150c-1,0.4-1.8,0.6-2.6,0.9c-0.7,0.2-1.6,0.3-2.5,0.3c-1.6,0-2.9-0.4-3.9-1.1c-1-0.8-1.6-1.9-1.9-3.3
				h-0.2c-1.3,1.5-2.8,2.6-4.3,3.4c-1.5,0.8-3.4,1.2-5.6,1.2c-2.3,0-4.2-0.7-5.7-2.1c-1.5-1.4-2.2-3.3-2.2-5.5
				c0-1.2,0.2-2.2,0.5-3.2c0.3-0.9,0.8-1.8,1.5-2.5c0.5-0.6,1.2-1.2,2.1-1.7c0.9-0.5,1.6-0.9,2.4-1.2c0.9-0.4,2.8-1,5.7-2
				c2.9-1,4.8-1.7,5.8-2.2v-3.1c0-0.3-0.1-0.8-0.2-1.6c-0.1-0.8-0.4-1.5-0.7-2.2c-0.4-0.8-1-1.4-1.8-2c-0.8-0.6-1.8-0.9-3.2-0.9
				c-1,0-1.8,0.2-2.7,0.5c-0.8,0.3-1.4,0.7-1.7,1c0,0.4,0.1,1,0.3,1.8c0.2,0.8,0.3,1.6,0.3,2.2c0,0.7-0.3,1.4-1,2
				c-0.7,0.6-1.6,0.9-2.7,0.9c-1,0-1.8-0.4-2.3-1.1c-0.5-0.7-0.7-1.6-0.7-2.5c0-1,0.3-1.9,1-2.7c0.7-0.9,1.6-1.6,2.6-2.3
				c0.9-0.6,2.1-1.1,3.4-1.5s2.6-0.6,3.9-0.6c1.7,0,3.3,0.1,4.6,0.4c1.3,0.2,2.5,0.8,3.5,1.5c1.1,0.8,1.9,1.8,2.4,3.1s0.8,3,0.8,5.1
				c0,3,0,5.6-0.1,7.9s-0.1,4.8-0.1,7.5c0,0.8,0.1,1.5,0.4,1.9c0.3,0.5,0.7,0.9,1.3,1.2c0.3,0.2,0.8,0.3,1.5,0.3c0.7,0,1.4,0,2.1,0
				V150z M509,133.6c-1.8,0.5-3.3,1-4.6,1.5c-1.3,0.5-2.6,1.1-3.7,1.9c-1,0.7-1.9,1.5-2.5,2.5s-0.9,2.1-0.9,3.4c0,1.7,0.5,3,1.4,3.8
				c0.9,0.8,2,1.2,3.4,1.2c1.5,0,2.8-0.4,3.9-1.1c1.1-0.7,2.1-1.6,2.8-2.5L509,133.6z"/>
			<path class="st1" d="M593.5,150.5H574v-2.2c0.7,0,1.6-0.1,2.7-0.2s1.9-0.3,2.3-0.5c0.6-0.4,1.1-0.8,1.4-1.4s0.5-1.1,0.5-1.9
				v-32.1h-0.5l-15.1,37.6h-1.6l-14.4-38.4H549v26.4c0,2.6,0.2,4.5,0.5,5.8c0.3,1.3,0.8,2.3,1.5,2.9c0.5,0.4,1.4,0.9,2.8,1.2
				c1.4,0.4,2.4,0.6,2.8,0.6v2.2h-17.8v-2.2c0.9-0.1,1.9-0.2,2.9-0.5c1-0.2,1.8-0.6,2.4-1c0.7-0.6,1.2-1.5,1.5-2.7
				c0.3-1.2,0.4-3.2,0.4-6v-22.6c0-1.3-0.2-2.4-0.5-3.2c-0.3-0.8-0.8-1.5-1.3-2c-0.6-0.6-1.4-1-2.4-1.2c-0.9-0.3-1.9-0.4-2.8-0.5
				v-2.2h15.1l12.7,33.2l10.8-27.7c0.4-1,0.7-2.1,1-3.2s0.4-1.9,0.5-2.2h14.4v2.2c-0.6,0-1.3,0.1-2.2,0.3c-0.9,0.2-1.6,0.3-2,0.5
				c-0.7,0.2-1.2,0.7-1.4,1.2c-0.2,0.6-0.4,1.2-0.4,1.9v31.8c0,0.7,0.1,1.3,0.4,1.8s0.7,0.9,1.4,1.3c0.4,0.2,1,0.4,2,0.6
				c1,0.2,1.7,0.3,2.3,0.3V150.5z"/>
			<path class="st1" d="M629.2,134.9c0,2.2-0.3,4.3-1,6.4c-0.7,2.1-1.7,3.9-2.9,5.3c-1.4,1.7-3.1,2.9-5,3.7c-1.9,0.8-4,1.2-6.4,1.2
				c-2,0-3.8-0.4-5.6-1.1s-3.3-1.8-4.7-3.2c-1.4-1.4-2.4-3.1-3.2-5.1c-0.8-2-1.2-4.2-1.2-6.7c0-4.8,1.4-8.7,4.2-11.8
				c2.8-3.1,6.5-4.6,11-4.6c4.3,0,7.8,1.4,10.6,4.3S629.2,130.1,629.2,134.9z M622.8,135c0-1.6-0.2-3.2-0.5-4.9
				c-0.3-1.7-0.8-3.2-1.4-4.4c-0.7-1.3-1.5-2.3-2.6-3.1c-1.1-0.8-2.4-1.2-4-1.2c-1.6,0-3,0.4-4.1,1.2c-1.1,0.8-2.1,1.9-2.8,3.2
				c-0.7,1.3-1.1,2.7-1.4,4.3s-0.4,3.2-0.4,4.7c0,2,0.2,3.8,0.5,5.5c0.3,1.7,0.8,3.2,1.5,4.5s1.6,2.4,2.7,3.1c1.1,0.8,2.4,1.1,4,1.1
				c2.6,0,4.7-1.3,6.2-3.8C622,142.8,622.8,139.4,622.8,135z"/>
			<path class="st1" d="M654.6,135.5c0.9,0.7,1.5,1.6,2,2.6c0.5,1,0.7,2.2,0.7,3.6c0,2.8-1.1,5.2-3.2,7c-2.1,1.8-4.9,2.7-8.3,2.7
				c-1.8,0-3.4-0.3-4.9-1c-1.5-0.6-2.6-1.2-3.2-1.8l-0.6,2h-2.3l-0.3-10.7h2.1c0.2,0.8,0.5,1.8,1.1,2.8c0.5,1.1,1.2,2.1,2,2.9
				c0.8,0.9,1.8,1.7,2.9,2.3c1.1,0.6,2.4,0.9,3.8,0.9c2,0,3.5-0.5,4.6-1.4c1.1-0.9,1.6-2.2,1.6-3.9c0-0.9-0.2-1.6-0.5-2.3
				c-0.3-0.6-0.8-1.2-1.5-1.7c-0.7-0.5-1.5-0.9-2.5-1.3c-1-0.4-2.1-0.8-3.3-1.1c-1-0.3-2.1-0.7-3.3-1.2c-1.2-0.5-2.2-1.1-3.1-1.8
				c-0.9-0.7-1.7-1.6-2.2-2.7s-0.9-2.3-0.9-3.7c0-2.5,0.9-4.6,2.8-6.4c1.9-1.7,4.4-2.6,7.5-2.6c1.2,0,2.4,0.2,3.7,0.5
				c1.3,0.3,2.3,0.7,3.1,1.1l0.7-1.6h2.2l0.5,9.9h-2.1c-0.4-2.2-1.4-4-2.8-5.4c-1.4-1.4-3.2-2.1-5.3-2.1c-1.7,0-3,0.4-4,1.3
				c-1,0.9-1.5,1.9-1.5,3.1c0,0.9,0.2,1.7,0.5,2.3c0.3,0.6,0.8,1.2,1.4,1.6c0.6,0.4,1.4,0.8,2.3,1.2c0.9,0.4,2.1,0.8,3.5,1.2
				c1.4,0.4,2.7,0.9,3.9,1.5C652.8,134.2,653.8,134.8,654.6,135.5z"/>
			<path class="st1" d="M696.2,164.4h-16.6v-2.1c0.6,0,1.3-0.1,1.9-0.2c0.6-0.1,1.2-0.2,1.7-0.3c0.6-0.2,1.1-0.6,1.3-1.1
				c0.2-0.5,0.4-1.1,0.4-1.8v-11.4l-0.2-0.1c-0.3,0.4-0.8,0.8-1.4,1.3c-0.6,0.5-1.2,0.9-1.9,1.2c-0.8,0.4-1.6,0.8-2.4,1
				c-0.8,0.2-1.7,0.4-2.9,0.4c-1.9,0-3.6-0.4-5.3-1.2c-1.6-0.8-3.1-1.9-4.3-3.3c-1.2-1.4-2.2-3.1-2.9-5.2c-0.7-2.1-1.1-4.3-1.1-6.8
				c0-2.3,0.4-4.5,1.2-6.4c0.8-1.9,1.9-3.6,3.3-5c1.3-1.3,2.9-2.4,4.7-3.2c1.8-0.8,3.7-1.2,5.5-1.2c1.3,0,2.5,0.1,3.6,0.4
				c1,0.3,1.9,0.6,2.7,0.9c0.6,0.3,1.3,0.6,1.9,1c0.6,0.4,1.1,0.7,1.4,0.9l2.7-4l1.8,0.2c-0.1,1.5-0.2,3.4-0.3,5.7s-0.2,4.2-0.2,5.9
				v28.4c0,0.7,0.1,1.4,0.4,1.9c0.3,0.5,0.7,0.9,1.3,1.2c0.5,0.2,1.1,0.4,1.9,0.5c0.8,0.2,1.4,0.3,1.9,0.3V164.4z M684.8,144.9
				v-18.3c-0.2-0.5-0.4-1.1-0.8-1.7s-0.9-1.2-1.4-1.7c-0.6-0.5-1.3-0.9-2.1-1.2c-0.8-0.3-1.8-0.5-2.9-0.5c-2.4,0-4.5,1.3-6.1,3.8
				c-1.6,2.5-2.5,6-2.5,10.4c0,1.7,0.2,3.3,0.5,4.7s0.9,2.7,1.7,4c0.7,1.2,1.7,2.1,2.8,2.8s2.6,1,4.3,1c1.5,0,2.8-0.3,3.8-0.9
				C683.2,146.4,684.1,145.7,684.8,144.9z"/>
			<path class="st1" d="M731.7,150l-10,0.7l-0.5-0.4v-3.9H721c-0.5,0.5-1.1,1.1-1.7,1.7c-0.6,0.6-1.3,1.1-2.1,1.6
				c-0.9,0.6-1.8,1-2.7,1.3s-2.1,0.4-3.7,0.4c-2.7,0-4.8-0.9-6.2-2.7c-1.4-1.8-2.1-4.3-2.1-7.7v-14.7c0-0.7-0.1-1.4-0.4-1.9
				s-0.7-0.9-1.2-1.3c-0.4-0.2-0.8-0.4-1.4-0.5s-1.2-0.2-1.8-0.2v-2.1l10.2-0.7l0.5,0.4v21.3c0,2.2,0.5,3.9,1.5,5s2.2,1.7,3.6,1.7
				c1.1,0,2.2-0.2,3.1-0.5s1.6-0.8,2.2-1.2c0.6-0.4,1.1-0.9,1.5-1.4c0.4-0.5,0.8-0.9,1-1.4V126c0-0.7-0.1-1.3-0.4-1.8
				c-0.3-0.5-0.7-1-1.2-1.4c-0.4-0.2-0.9-0.4-1.7-0.5c-0.7-0.1-1.6-0.1-2.5-0.1v-2.1l11.2-0.7l0.5,0.4v24.3c0,0.7,0.1,1.3,0.4,1.8
				s0.7,0.9,1.2,1.3c0.4,0.2,0.8,0.4,1.3,0.5c0.5,0.1,1.1,0.1,1.7,0.1V150z"/>
			<path class="st1" d="M763.4,143.3c-1.3,2.4-3,4.4-5.2,5.9s-4.6,2.2-7.4,2.2c-2.5,0-4.6-0.4-6.5-1.3s-3.4-2.1-4.6-3.5
				c-1.2-1.5-2.1-3.2-2.7-5.2c-0.6-2-0.9-4.1-0.9-6.3c0-2,0.3-3.9,0.9-5.9c0.6-1.9,1.6-3.6,2.8-5.2c1.2-1.5,2.7-2.7,4.4-3.6
				s3.7-1.4,5.9-1.4c2.2,0,4.2,0.4,5.8,1.1c1.6,0.7,2.9,1.7,3.9,2.9c1,1.2,1.7,2.5,2.1,4.1c0.5,1.6,0.7,3.3,0.7,5.1v2.1h-20.3
				c0,2,0.2,3.8,0.6,5.5c0.4,1.6,1,3.1,1.8,4.3c0.8,1.2,1.9,2.2,3.2,2.9c1.3,0.7,2.9,1,4.7,1c1.8,0,3.4-0.4,4.8-1.3s2.6-2.4,3.9-4.7
				L763.4,143.3z M756.5,131.6c0-1.2-0.1-2.4-0.3-3.7c-0.2-1.3-0.5-2.4-0.9-3.3c-0.5-1-1.1-1.7-2-2.3s-1.9-0.9-3.2-0.9
				c-2.2,0-4,0.9-5.4,2.7c-1.4,1.8-2.2,4.3-2.4,7.6H756.5z"/>
			<path class="st1" d="M791.1,123.8c0,1.1-0.3,2-0.8,2.8s-1.3,1.2-2.4,1.2c-1.2,0-2-0.3-2.7-0.9c-0.6-0.6-0.9-1.3-0.9-2
				c0-0.5,0-0.9,0.1-1.2c0.1-0.4,0.1-0.7,0.2-1.1c-1,0-2.1,0.4-3.4,1.2c-1.3,0.8-2.4,1.9-3.3,3.4V145c0,0.7,0.1,1.3,0.4,1.8
				c0.3,0.5,0.7,0.8,1.3,1c0.5,0.2,1.2,0.4,2,0.5c0.8,0.1,1.5,0.2,2.1,0.2v2.1h-16.2v-2.1c0.5,0,1-0.1,1.5-0.1
				c0.5,0,0.9-0.1,1.3-0.2c0.6-0.2,1-0.5,1.3-1c0.3-0.5,0.4-1.1,0.4-1.8v-18.9c0-0.6-0.2-1.3-0.5-1.9c-0.3-0.6-0.7-1.1-1.3-1.5
				c-0.4-0.2-0.9-0.4-1.4-0.5c-0.5-0.1-1.1-0.2-1.7-0.2v-2.1l10.2-0.7l0.4,0.4v4.3h0.2c1.3-1.7,2.7-3,4.3-3.8s3-1.3,4.3-1.3
				c1.3,0,2.4,0.4,3.2,1.3C790.6,121.2,791.1,122.4,791.1,123.8z"/>
			<path class="st1" d="M823.4,150c-1,0.4-1.8,0.6-2.6,0.9c-0.7,0.2-1.6,0.3-2.5,0.3c-1.6,0-2.9-0.4-3.9-1.1s-1.6-1.9-1.9-3.3h-0.2
				c-1.3,1.5-2.8,2.6-4.3,3.4c-1.5,0.8-3.4,1.2-5.6,1.2c-2.3,0-4.2-0.7-5.7-2.1c-1.5-1.4-2.2-3.3-2.2-5.5c0-1.2,0.2-2.2,0.5-3.2
				c0.3-0.9,0.8-1.8,1.5-2.5c0.5-0.6,1.2-1.2,2.1-1.7c0.9-0.5,1.6-0.9,2.4-1.2c0.9-0.4,2.8-1,5.7-2c2.9-1,4.8-1.7,5.8-2.2v-3.1
				c0-0.3-0.1-0.8-0.2-1.6c-0.1-0.8-0.4-1.5-0.7-2.2c-0.4-0.8-1-1.4-1.8-2c-0.8-0.6-1.8-0.9-3.2-0.9c-1,0-1.8,0.2-2.7,0.5
				c-0.8,0.3-1.4,0.7-1.7,1c0,0.4,0.1,1,0.3,1.8c0.2,0.8,0.3,1.6,0.3,2.2c0,0.7-0.3,1.4-1,2c-0.7,0.6-1.6,0.9-2.7,0.9
				c-1,0-1.8-0.4-2.3-1.1c-0.5-0.7-0.7-1.6-0.7-2.5c0-1,0.3-1.9,1-2.7c0.7-0.9,1.6-1.6,2.6-2.3c0.9-0.6,2.1-1.1,3.4-1.5
				s2.6-0.6,3.9-0.6c1.7,0,3.3,0.1,4.6,0.4c1.3,0.2,2.5,0.8,3.5,1.5c1.1,0.8,1.9,1.8,2.4,3.1s0.8,3,0.8,5.1c0,3,0,5.6-0.1,7.9
				s-0.1,4.8-0.1,7.5c0,0.8,0.1,1.5,0.4,1.9c0.3,0.5,0.7,0.9,1.3,1.2c0.3,0.2,0.8,0.3,1.5,0.3c0.7,0,1.4,0,2.1,0V150z M812.5,133.6
				c-1.8,0.5-3.3,1-4.6,1.5c-1.3,0.5-2.6,1.1-3.7,1.9c-1,0.7-1.9,1.5-2.5,2.5s-0.9,2.1-0.9,3.4c0,1.7,0.5,3,1.4,3.8
				c0.9,0.8,2,1.2,3.4,1.2c1.5,0,2.8-0.4,3.9-1.1c1.1-0.7,2.1-1.6,2.8-2.5L812.5,133.6z"/>
		</g>
		<g>
			<path class="st2" d="M354.8,192.2l-5.4,10.1h-4.2l20.4-37.4l20.4,37.4h-4.2l-5.4-10.1H354.8z M365.4,172.4l-8.8,16.4h17.7
				L365.4,172.4z"/>
			<path class="st2" d="M398.1,179.2c1.5-0.7,3-1.1,4.6-1.1c2.3,0,4.3,0.5,6.2,1.6c1.8,1.1,3.3,2.6,4.3,4.5c1,1.9,1.6,4,1.6,6.3
				c0,2.3-0.5,4.4-1.6,6.3c-1,1.9-2.5,3.4-4.3,4.5c-1.8,1.1-3.9,1.6-6.2,1.6c-1.6,0-3.2-0.4-4.6-1.1c-1.5-0.7-2.6-1.6-3.5-2.7v3.1
				h-3.8v-36.1h3.8v15.6C395.5,180.8,396.7,179.9,398.1,179.2z M407,198.2c1.3-0.8,2.3-1.9,3-3.3c0.7-1.4,1-2.8,1-4.4
				c0-1.6-0.3-3.1-1-4.4c-0.7-1.4-1.7-2.5-3-3.3c-1.3-0.8-2.8-1.2-4.4-1.2c-1.6,0-3,0.4-4.3,1.2c-1.3,0.8-2.3,1.8-3,3.2
				c-0.7,1.4-1.1,2.9-1.1,4.5c0,1.7,0.4,3.2,1.1,4.5c0.7,1.4,1.7,2.4,3,3.2c1.3,0.8,2.7,1.2,4.3,1.2
				C404.2,199.4,405.7,199,407,198.2z"/>
			<path class="st2" d="M438.9,179.7c1.9,1.1,3.3,2.6,4.4,4.5c1,1.9,1.6,4,1.6,6.3c0,2.3-0.5,4.4-1.6,6.3c-1,1.9-2.5,3.4-4.4,4.5
				c-1.9,1.1-4,1.6-6.3,1.6c-2.4,0-4.5-0.5-6.3-1.6c-1.9-1.1-3.3-2.6-4.4-4.5c-1-1.9-1.6-4-1.6-6.3c0-2.3,0.5-4.4,1.6-6.3
				c1-1.9,2.5-3.4,4.4-4.5c1.9-1.1,4-1.6,6.3-1.6C434.9,178.1,437,178.6,438.9,179.7z M437,198.2c1.3-0.8,2.3-1.9,3-3.3
				c0.7-1.4,1-2.8,1-4.4c0-1.6-0.3-3.1-1-4.4c-0.7-1.4-1.7-2.5-3-3.3c-1.3-0.8-2.8-1.2-4.4-1.2c-1.7,0-3.1,0.4-4.4,1.2
				c-1.3,0.8-2.3,1.9-3,3.3c-0.7,1.4-1,2.8-1,4.4c0,1.6,0.3,3.1,1,4.4c0.7,1.4,1.7,2.5,3,3.3c1.3,0.8,2.7,1.2,4.4,1.2
				C434.3,199.4,435.7,199,437,198.2z"/>
			<path class="st2" d="M473.6,206c0,3.4-1,6-3.1,7.6c-2.1,1.7-4.7,2.5-7.9,2.5c-2,0-3.7-0.3-5.4-1s-2.9-1.7-3.9-3
				c-1-1.3-1.6-2.9-1.7-4.7h3.8c0.2,1.7,0.9,3,2.3,3.9c1.4,0.9,3,1.3,4.8,1.3c2,0,3.7-0.5,5.1-1.6c1.4-1.1,2.1-2.8,2.1-5.2v-7.3
				c-0.9,1-2,1.8-3.4,2.4c-1.4,0.6-2.8,1-4.4,1c-2.2,0-4.2-0.5-5.9-1.6c-1.8-1-3.2-2.5-4.2-4.3c-1-1.8-1.5-3.8-1.5-6.1
				s0.5-4.3,1.5-6.1c1-1.8,2.4-3.2,4.2-4.3c1.8-1,3.7-1.6,5.9-1.6c1.6,0,3,0.3,4.4,1c1.4,0.6,2.5,1.5,3.4,2.4v-2.8h3.8V206z
				 M466.4,197.4c1.2-0.7,2.2-1.7,2.9-3c0.7-1.3,1-2.7,1-4.3s-0.3-3-1-4.3c-0.7-1.3-1.7-2.3-2.9-3c-1.2-0.7-2.6-1.1-4.1-1.1
				c-1.6,0-3,0.4-4.2,1.1c-1.2,0.8-2.2,1.8-2.8,3.1c-0.7,1.3-1,2.7-1,4.2s0.3,2.9,1,4.2c0.7,1.3,1.6,2.3,2.8,3.1
				c1.2,0.8,2.6,1.2,4.2,1.2C463.8,198.5,465.1,198.1,466.4,197.4z"/>
			<path class="st2" d="M504.6,202.3h-3.8v-3.1c-0.9,1.1-2.1,2-3.5,2.7c-1.4,0.7-3,1-4.6,1c-2.3,0-4.4-0.5-6.2-1.6
				c-1.8-1.1-3.3-2.6-4.3-4.5c-1-1.9-1.6-4-1.6-6.3c0-2.3,0.5-4.4,1.6-6.3c1-1.9,2.5-3.4,4.3-4.5c1.8-1.1,3.9-1.6,6.2-1.6
				c1.6,0,3.1,0.3,4.6,1c1.4,0.7,2.6,1.6,3.5,2.7v-3.1h3.8V202.3z M497.1,198.3c1.3-0.8,2.3-1.8,3-3.2c0.7-1.4,1.1-2.9,1.1-4.5
				c0-1.7-0.4-3.2-1.1-4.5c-0.7-1.4-1.8-2.4-3-3.2c-1.3-0.8-2.7-1.2-4.3-1.2c-1.7,0-3.1,0.4-4.4,1.2c-1.3,0.8-2.3,1.9-3,3.3
				c-0.7,1.4-1,2.8-1,4.4c0,1.6,0.3,3.1,1,4.4c0.7,1.4,1.7,2.5,3,3.3c1.3,0.8,2.7,1.2,4.4,1.2C494.4,199.4,495.8,199,497.1,198.3z"
				/>
			<path class="st2" d="M535.6,202.3h-3.8v-3.1c-0.9,1.1-2.1,2-3.5,2.7c-1.4,0.7-3,1-4.6,1c-2.3,0-4.4-0.5-6.2-1.6
				c-1.8-1.1-3.3-2.6-4.3-4.5c-1-1.9-1.6-4-1.6-6.3c0-2.3,0.5-4.4,1.6-6.3c1-1.9,2.5-3.4,4.3-4.5c1.8-1.1,3.9-1.6,6.2-1.6
				c1.6,0,3.1,0.3,4.6,1c1.4,0.7,2.6,1.6,3.5,2.7v-15.6h3.8V202.3z M528.1,198.3c1.3-0.8,2.3-1.8,3-3.2c0.7-1.4,1.1-2.9,1.1-4.5
				c0-1.7-0.4-3.2-1.1-4.5c-0.7-1.4-1.8-2.4-3-3.2c-1.3-0.8-2.7-1.2-4.3-1.2c-1.7,0-3.1,0.4-4.4,1.2c-1.3,0.8-2.3,1.9-3,3.3
				c-0.7,1.4-1,2.8-1,4.4c0,1.6,0.3,3.1,1,4.4c0.7,1.4,1.7,2.5,3,3.3c1.3,0.8,2.7,1.2,4.4,1.2C525.4,199.4,526.8,199,528.1,198.3z"
				/>
			<path class="st2" d="M566.5,202.3h-3.8v-3.1c-0.9,1.1-2.1,2-3.5,2.7c-1.4,0.7-3,1-4.6,1c-2.3,0-4.4-0.5-6.2-1.6
				c-1.8-1.1-3.3-2.6-4.3-4.5c-1-1.9-1.6-4-1.6-6.3c0-2.3,0.5-4.4,1.6-6.3c1-1.9,2.5-3.4,4.3-4.5c1.8-1.1,3.9-1.6,6.2-1.6
				c1.6,0,3.1,0.3,4.6,1c1.4,0.7,2.6,1.6,3.5,2.7v-3.1h3.8V202.3z M559.1,198.3c1.3-0.8,2.3-1.8,3-3.2c0.7-1.4,1.1-2.9,1.1-4.5
				c0-1.7-0.4-3.2-1.1-4.5c-0.7-1.4-1.8-2.4-3-3.2c-1.3-0.8-2.7-1.2-4.3-1.2c-1.7,0-3.1,0.4-4.4,1.2c-1.3,0.8-2.3,1.9-3,3.3
				c-0.7,1.4-1,2.8-1,4.4c0,1.6,0.3,3.1,1,4.4c0.7,1.4,1.7,2.5,3,3.3c1.3,0.8,2.7,1.2,4.4,1.2C556.4,199.4,557.8,199,559.1,198.3z"
				/>
			<path class="st2" d="M606.2,167.6c1.8,1,3.2,2.3,4.2,3.9c1,1.6,1.5,3.5,1.5,5.5c0,2-0.5,3.8-1.5,5.5c-1,1.7-2.4,3-4.2,3.9
				c-1.8,1-3.9,1.4-6.2,1.4h-8.8v14.5h-3.8v-36.1H600C602.4,166.2,604.4,166.7,606.2,167.6z M603.8,183.5c1.3-0.6,2.3-1.5,3-2.6
				c0.7-1.1,1.1-2.4,1.1-3.8c0-1.4-0.4-2.7-1.1-3.8c-0.7-1.1-1.7-2-3-2.6c-1.3-0.6-2.8-0.9-4.5-0.9h-8v14.7h8
				C601,184.4,602.5,184.1,603.8,183.5z"/>
			<path class="st2" d="M634.2,196.3l2.6,2.4c-2.4,2.8-5.6,4.2-9.7,4.2c-2.4,0-4.5-0.5-6.3-1.6c-1.9-1.1-3.3-2.6-4.4-4.5
				c-1-1.9-1.6-4-1.6-6.3c0-2.3,0.5-4.4,1.5-6.3c1-1.9,2.4-3.4,4.2-4.5c1.8-1.1,3.7-1.6,5.9-1.6c2.1,0,4.1,0.5,5.8,1.6
				c1.8,1.1,3.2,2.6,4.2,4.6s1.6,4.2,1.6,6.7l0,1h-19.2c0.3,2.1,1.2,3.9,2.7,5.3c1.5,1.4,3.4,2.1,5.6,2.1
				C630,199.4,632.4,198.4,634.2,196.3z M621.3,183.6c-1.4,1.4-2.3,3.1-2.6,5.2H634c-0.2-2.1-1-3.8-2.5-5.2
				c-1.4-1.4-3.1-2.1-5.1-2.1C624.4,181.5,622.8,182.2,621.3,183.6z"/>
			<path class="st2" d="M649,181.5c0.8-1,1.9-1.9,3.2-2.5c1.3-0.6,2.7-0.9,4.2-0.9c2.8,0,5,0.9,6.6,2.6c1.6,1.8,2.4,4.2,2.4,7.4
				v14.2h-3.8V189c0-2.5-0.5-4.4-1.5-5.6s-2.6-1.8-4.8-1.8c-1.8,0-3.3,0.7-4.5,2s-1.8,3.1-1.8,5.5v13.3h-3.8v-23.6h3.8V181.5z"/>
			<path class="st2" d="M696.3,202.3h-3.8v-3.1c-0.9,1.1-2.1,2-3.5,2.7c-1.4,0.7-3,1-4.6,1c-2.3,0-4.4-0.5-6.2-1.6
				c-1.8-1.1-3.3-2.6-4.3-4.5c-1-1.9-1.6-4-1.6-6.3c0-2.3,0.5-4.4,1.6-6.3c1-1.9,2.5-3.4,4.3-4.5c1.8-1.1,3.9-1.6,6.2-1.6
				c1.6,0,3.1,0.3,4.6,1c1.4,0.7,2.6,1.6,3.5,2.7v-3.1h3.8V202.3z M688.9,198.3c1.3-0.8,2.3-1.8,3-3.2c0.7-1.4,1.1-2.9,1.1-4.5
				c0-1.7-0.4-3.2-1.1-4.5c-0.7-1.4-1.8-2.4-3-3.2c-1.3-0.8-2.7-1.2-4.3-1.2c-1.7,0-3.1,0.4-4.4,1.2c-1.3,0.8-2.3,1.9-3,3.3
				c-0.7,1.4-1,2.8-1,4.4c0,1.6,0.3,3.1,1,4.4c0.7,1.4,1.7,2.5,3,3.3c1.3,0.8,2.7,1.2,4.4,1.2C686.2,199.4,687.6,199,688.9,198.3z"
				/>
			<path class="st2" d="M705,166.2h3.8v36.1H705V166.2z"/>
			<path class="st2" d="M717.4,172.3c-0.5-0.5-0.7-1.1-0.7-1.9c0-0.8,0.2-1.4,0.7-1.9c0.5-0.5,1.1-0.7,1.8-0.7
				c0.8,0,1.4,0.2,1.9,0.7c0.5,0.5,0.7,1.1,0.7,1.9c0,0.8-0.2,1.4-0.7,1.9c-0.5,0.5-1.1,0.7-1.9,0.7
				C718.5,173,717.9,172.8,717.4,172.3z M717.4,178.7h3.8v23.6h-3.8V178.7z"/>
			<path class="st2" d="M741.4,182.5c-1.4-0.7-2.9-1-4.4-1c-1.7,0-3.1,0.3-4.1,1c-1,0.7-1.5,1.5-1.5,2.6c0,0.8,0.3,1.4,0.8,1.8
				s1.2,0.8,2,1c0.8,0.2,2,0.4,3.4,0.7c2,0.3,3.6,0.7,4.9,1.1c1.3,0.4,2.3,1.1,3.2,2c0.9,1,1.3,2.3,1.3,4c0,2.3-0.9,4.1-2.7,5.4
				c-1.8,1.3-4.3,1.9-7.4,1.9c-2.4,0-4.5-0.4-6.2-1.1s-3.1-1.6-4-2.5l1.7-3c0.9,0.9,2.1,1.6,3.5,2.3c1.4,0.6,3.1,1,5,1
				c1.9,0,3.4-0.4,4.5-1.1s1.7-1.6,1.7-2.7c0-0.8-0.3-1.5-0.8-1.9c-0.6-0.5-1.3-0.8-2.1-1.1c-0.8-0.2-2-0.5-3.4-0.7
				c-2-0.3-3.6-0.7-4.8-1.1c-1.2-0.4-2.2-1.1-3.1-2c-0.9-0.9-1.3-2.3-1.3-4c0-1.3,0.4-2.5,1.1-3.5s1.8-1.8,3.3-2.4
				c1.4-0.6,3.1-0.9,5-0.9c2.1,0,4,0.4,5.6,1.2c1.6,0.8,2.9,1.6,3.8,2.5l-1.6,2.8C744,183.8,742.8,183.1,741.4,182.5z"/>
			<path class="st2" d="M765.9,182H759v20.3h-3.8V182h-5v-3.3h5v-11.4h3.8v11.4h6.8V182z"/>
			<path class="st2" d="M792.7,202.3h-3.8v-3.1c-0.9,1.1-2.1,2-3.5,2.7c-1.4,0.7-3,1-4.6,1c-2.3,0-4.4-0.5-6.2-1.6
				c-1.8-1.1-3.3-2.6-4.3-4.5c-1-1.9-1.6-4-1.6-6.3c0-2.3,0.5-4.4,1.6-6.3c1-1.9,2.5-3.4,4.3-4.5c1.8-1.1,3.9-1.6,6.2-1.6
				c1.6,0,3.1,0.3,4.6,1c1.4,0.7,2.6,1.6,3.5,2.7v-3.1h3.8V202.3z M785.2,198.3c1.3-0.8,2.3-1.8,3-3.2c0.7-1.4,1.1-2.9,1.1-4.5
				c0-1.7-0.4-3.2-1.1-4.5c-0.7-1.4-1.8-2.4-3-3.2c-1.3-0.8-2.7-1.2-4.3-1.2c-1.7,0-3.1,0.4-4.4,1.2c-1.3,0.8-2.3,1.9-3,3.3
				c-0.7,1.4-1,2.8-1,4.4c0,1.6,0.3,3.1,1,4.4c0.7,1.4,1.7,2.5,3,3.3c1.3,0.8,2.7,1.2,4.4,1.2C782.5,199.4,783.9,199,785.2,198.3z"
				/>
		</g>
	</g>
	<g>
		<g class="st3">
			<g>
				<g class="st3">
					<defs>
						<polygon id="SVGID_1_" class="st3" points="-0.2,251.5 0.2,81.9 141.2,0 140.7,169.6 						"/>
					</defs>
					<clipPath id="SVGID_2_">
						<use xlink:href="#SVGID_1_"  style="overflow:visible;"/>
					</clipPath>
					<g class="st4">
						<polyline class="st1" points="137.8,3.1 110.5,18.9 83.2,34.7 56,50.6 28.7,66.4 1.5,82.3 1.4,116.3 1.3,150.4 1.2,184.5 
							1.1,218.5 1,252.6 28.2,236.7 55.5,220.9 82.8,205.1 110,189.2 137.3,173.4 137.4,139.3 110.1,155.2 82.9,171 55.6,186.8 
							28.3,202.7 28.4,168.6 55.7,152.8 83,136.9 110.2,121.1 137.5,105.3 137.6,71.2 110.3,87 83,102.9 55.8,118.7 28.5,134.5 
							28.6,100.5 55.9,84.6 83.1,68.8 110.4,53 137.7,37.1 137.8,3.1 						"/>
					</g>
				</g>
			</g>
			<g>
				<g class="st3">
					<defs>
						<polygon id="SVGID_3_" class="st3" points="140.7,169.6 141.2,0 283.1,81.9 282.6,251.5 						"/>
					</defs>
					<clipPath id="SVGID_4_">
						<use xlink:href="#SVGID_3_"  style="overflow:visible;"/>
					</clipPath>
					<g class="st5">
						<polyline class="st2" points="281.5,83.5 254.4,67.8 227.3,52.2 200.2,36.6 173.1,20.9 146.1,5.3 146,38.7 145.9,72 
							145.8,105.4 145.7,138.8 145.6,172.2 172.7,187.8 172.8,154.4 172.9,121.1 172.9,87.7 173,54.3 200.1,69.9 200,103.3 
							199.9,136.7 199.8,170.1 199.7,203.5 226.8,219.1 226.9,185.7 227,152.3 227.1,119 227.2,85.6 254.3,101.2 254.2,134.6 
							254.1,168 254,201.3 253.9,234.7 281,250.4 281.1,217 281.2,183.6 281.3,150.2 281.4,116.8 281.5,83.5 						"/>
					</g>
				</g>
			</g>
			<g>
				<g class="st3">
					<defs>
						<polygon id="SVGID_5_" class="st3" points="282.6,251.5 141.7,333.4 -0.2,251.5 140.7,169.6 						"/>
					</defs>
					<clipPath id="SVGID_6_">
						<use xlink:href="#SVGID_5_"  style="overflow:visible;"/>
					</clipPath>
					<g class="st6">
						<polyline class="st7" points="276.6,255.1 141.6,176.2 4.1,255 139.1,334 276.6,255.1 						"/>
					</g>
				</g>
			</g>
		</g>
	</g>
</g>
<g id="Logo_Colores" class="st11">
</g>
<g id="escala_de_grises" class="st11">
</g>
<g id="Fondo_oscuro" class="st11">
</g>
</svg>
